<?xml version="1.0" encoding="UTF-8"?>
<svg xmlns="http://www.w3.org/2000/svg" xmlns:xlink="http://www.w3.org/1999/xlink" width="20px" height="20px" viewBox="0 0 20 20" version="1.1">
<g id="surface1">
<path style=" stroke:none;fill-rule:nonzero;fill:rgb(25.882353%,52.156863%,95.686275%);fill-opacity:1;" d="M 18.601562 9.800781 C 18.601562 9.199219 18.535156 8.601562 18.464844 8 L 10.132812 8 L 10.132812 11.398438 L 14.867188 11.398438 C 14.667969 12.464844 14.066406 13.464844 13.132812 14.066406 L 13.132812 16.265625 L 16 16.265625 C 17.667969 14.734375 18.601562 12.464844 18.601562 9.800781 Z M 18.601562 9.800781 "/>
<path style=" stroke:none;fill-rule:nonzero;fill:rgb(20.392157%,65.882353%,32.54902%);fill-opacity:1;" d="M 10.132812 18.398438 C 12.535156 18.398438 14.535156 17.601562 16 16.265625 L 13.132812 14.066406 C 12.332031 14.601562 11.332031 14.933594 10.132812 14.933594 C 7.867188 14.933594 5.867188 13.398438 5.199219 11.265625 L 2.265625 11.265625 L 2.265625 13.535156 C 3.800781 16.535156 6.800781 18.398438 10.132812 18.398438 Z M 10.132812 18.398438 "/>
<path style=" stroke:none;fill-rule:nonzero;fill:rgb(98.431373%,73.72549%,1.568627%);fill-opacity:1;" d="M 5.199219 11.265625 C 4.800781 10.199219 4.800781 9 5.199219 7.867188 L 5.199219 5.601562 L 2.265625 5.601562 C 1 8.066406 1 11 2.265625 13.535156 Z M 5.199219 11.265625 "/>
<path style=" stroke:none;fill-rule:nonzero;fill:rgb(91.764706%,26.27451%,20.784314%);fill-opacity:1;" d="M 10.132812 4.265625 C 11.398438 4.265625 12.601562 4.734375 13.535156 5.601562 L 16.066406 3.066406 C 14.464844 1.601562 12.332031 0.734375 10.199219 0.800781 C 6.867188 0.800781 3.800781 2.667969 2.332031 5.667969 L 5.265625 7.933594 C 5.867188 5.800781 7.867188 4.265625 10.132812 4.265625 Z M 10.132812 4.265625 "/>
</g>
</svg>
